<svg width="20" height="20" xmlns="http://www.w3.org/2000/svg">
	<path d="M19.586 10.517c-.248 4.121-4.425 7.365-9.554 7.322-5.296-.044-9.6-3.576-9.614-7.89 0-.09.001-.18.005-.27.095.062 5.253 3.338 9.586.353 4.224-2.91 9.405.374 9.577.485Z" fill="#BF8547"/>
	<path d="M19.614 10.1c0 .137-.004.273-.012.408-.172-.11-5.353-3.395-9.577-.485C5.692 13.008.534 9.732.439 9.671c.16-4.188 4.375-7.505 9.56-7.462 5.297.044 9.601 3.576 9.615 7.89Z" fill="#DBA175"/>
	<path d="M19.204 12.329s-3.132 3.962-9.184 3.835c-6.052-.127-8.9-3.429-9.597-4.921 0 0 2.338 6.974 9.604 6.598 7.267-.377 9.177-5.512 9.177-5.512Z" fill="#A56F3D"/>
	<path d="M19.219 7.668s-3.158-4.017-9.212-3.99C3.953 3.705 1.125 6.96.437 8.44c0 0 2.295-6.938 9.567-6.44 7.272.497 9.215 5.667 9.215 5.667Z" fill="#EABEA0"/>
	<path d="m.43 9.88.207-1.228c.012.007 1.198.861 2.946 1.282 2.282.548 4.29.263 5.969-.85 1.881-1.247 4.197-1.59 6.698-.992 1.86.444 3.125 1.284 3.18 1.318l.166.482-.164.276-.595.324a10.828 10.828 0 0 0-2.89-1.137c-2.184-.514-4.106-.233-5.714.832-1.953 1.294-4.359 1.643-6.959 1.008C1.341 10.723.487 9.915.43 9.879Z" fill="#BF8547"/>
	<path d="m.427 10.75.449-1.105c.012.007 1.27.785 3.018 1.205 2.282.549 4.29.263 5.97-.85 1.88-1.246 4.197-1.59 6.698-.992 1.86.444 3.165 1.248 3.22 1.281l-.634 1.119.317-.56-.316.56a10.82 10.82 0 0 0-2.89-1.137c-2.184-.513-4.13-.5-5.679.655-1.98 1.478-4.54 1.636-7.14 1.001C1.507 11.455.484 10.785.427 10.75Z" fill="#D8A16F"/>
	<path d="M8.948 4.774c-.097 1.037 1.335 2.045 3.2 2.253 1.864.208 3.454-.463 3.551-1.5.098-1.036-1.335-2.045-3.199-2.253-1.864-.208-3.454.464-3.552 1.5Z" fill="#EABEA0"/>
	<path d="M1.444 5.75c.868-1.192 2.102-2.185 3.571-2.872C6.52 2.176 8.24 1.812 9.99 1.826c5.493.046 9.974 3.76 9.988 8.281.005 1.484-.476 2.934-1.391 4.192-.867 1.192-2.102 2.185-3.57 2.871-1.505.703-3.225 1.067-4.976 1.052-2.644-.022-5.137-.884-7.018-2.428C1.115 14.228.06 12.149.053 9.94.048 8.457.53 7.008 1.444 5.75Zm16.553 8.08c.817-1.124 1.247-2.414 1.243-3.729-.013-4.096-4.161-7.463-9.248-7.506C6.73 2.568 3.68 3.956 2.035 6.218 1.217 7.343.787 8.632.792 9.948c.006 1.966.96 3.828 2.684 5.244 1.752 1.437 4.083 2.24 6.563 2.261 3.263.027 6.312-1.361 7.958-3.623Z" fill="#3A3238"/>
	<path d="M.138 9.44a.358.358 0 0 1 .487-.09c.012.007 1.29.82 3.065 1.263 2.342.583 4.401.278 6.12-.906 1.845-1.27 4.159-1.588 6.693-.917 1.893.5 3.229 1.363 3.285 1.4.174.113.228.35.12.53a.359.359 0 0 1-.507.12 11.824 11.824 0 0 0-3.093-1.311c-2.352-.617-4.4-.341-6.086.82-1.874 1.291-4.198 1.639-6.72 1.005-1.885-.473-3.206-1.317-3.261-1.353a.396.396 0 0 1-.103-.56Z" fill="#3A3238"/>
</svg>
