<svg width="20" height="20" fill="none" xmlns="http://www.w3.org/2000/svg">
	<path d="M10.56 1.218H9.1v1.838h1.46V1.218Z" fill="#7C7E86"/>
	<path d="M11.315 1.19c0 .243-.158.453-.332.453H8.692c-.174 0-.345-.21-.345-.452V.666c0-.242.171-.437.345-.437h2.291c.174 0 .332.195.332.437v.525ZM16.829 2.887l-.766.766 1.599 1.6.766-.766-1.6-1.6ZM3.167 2.887l-1.598 1.6.766.766 1.598-1.6-.766-.766ZM18.297 11.457c-.021 4.614-3.777 8.336-8.387 8.314-4.61-.021-8.33-3.779-8.31-8.393.022-4.614 3.778-8.336 8.388-8.314 4.61.022 8.331 3.78 8.31 8.393Z" fill="#7C7E86"/>
	<path d="M2.889 11.417a7.068 7.068 0 0 1 4.389-6.506 7.056 7.056 0 0 1 7.687 1.568 7.066 7.066 0 0 1-5.049 12.037 7.057 7.057 0 0 1-6.502-4.392 7.068 7.068 0 0 1-.525-2.707Z" fill="#3B3D44"/>
	<path opacity=".3" d="M4.933 16.423a7.065 7.065 0 0 1 .048-9.992 7.058 7.058 0 0 1 9.985.048" fill="#50525B"/>
	<path opacity=".2" d="M2.974 11.303c0-1.851.735-3.626 2.043-4.935a6.973 6.973 0 0 1 11.908 4.935S15.65 5.6 9.849 5.6s-6.875 5.703-6.875 5.703Z" fill="#3A3238"/>
	<path opacity=".5" d="M2.289 8.091S4.824 3.68 9.849 3.68c5.025 0 7.76 4.411 7.76 4.411s-1.867-5.006-7.76-5.006-7.56 5.006-7.56 5.006Z" fill="#fff"/>
	<path opacity=".2" d="M17.61 14.743s-2.536 4.411-7.56 4.411c-5.026 0-7.761-4.411-7.761-4.411s1.867 5.005 7.76 5.005c5.894 0 7.56-5.005 7.56-5.005Z" fill="#3A3238"/>
	<path d="M9.95 20H9.91a8.574 8.574 0 0 1-6.02-2.548A8.585 8.585 0 0 1 9.947 2.835h.041a8.574 8.574 0 0 1 6.02 2.549 8.586 8.586 0 0 1-.027 12.095A8.573 8.573 0 0 1 9.951 20ZM9.948 3.292a8.117 8.117 0 0 0-5.71 2.388 8.128 8.128 0 0 0 5.673 13.863h.04a8.118 8.118 0 0 0 5.709-2.388 8.128 8.128 0 0 0 .025-11.45 8.118 8.118 0 0 0-5.699-2.413h-.038Z" fill="#3A3238"/>
	<path d="M9.95 18.71h-.035a7.286 7.286 0 0 1-5.15-2.147A7.296 7.296 0 0 1 9.949 4.124h.035a7.286 7.286 0 0 1 5.15 2.148A7.296 7.296 0 0 1 9.95 18.71ZM9.948 4.582a6.83 6.83 0 0 0-4.835 1.991 6.839 6.839 0 0 0 4.804 11.682h.033a6.83 6.83 0 0 0 4.818-1.991 6.842 6.842 0 0 0-2.175-11.149 6.828 6.828 0 0 0-2.612-.533h-.033ZM10.983 1.871H8.692c-.306 0-.574-.32-.574-.68V.666c0-.361.263-.666.574-.666h2.291c.309 0 .56.299.56.666v.525c0 .369-.256.68-.56.68ZM8.692.457c-.029 0-.117.076-.117.21v.524c0 .134.088.219.118.223h2.29c.025-.005.103-.091.103-.223V.666c0-.133-.078-.209-.103-.209H8.692Z" fill="#3A3238"/>
	<path d="M9.33 1.643h-.458v1.414h.457V1.643ZM10.79 1.643h-.458v1.414h.457V1.643ZM17.661 5.482a.228.228 0 0 1-.161-.067l-1.599-1.6a.229.229 0 0 1 0-.323l.766-.767a.229.229 0 0 1 .323 0l1.6 1.6a.229.229 0 0 1 0 .323l-.767.769a.228.228 0 0 1-.162.065Zm-1.275-1.829L17.66 4.93l.443-.444L16.83 3.21l-.443.443Z" fill="#3A3238"/>
	<path d="m16.68 4.272-1 1.002.323.323 1-1.001-.322-.324ZM2.335 5.482a.228.228 0 0 1-.161-.065l-.767-.769a.229.229 0 0 1 0-.323l1.599-1.6a.228.228 0 0 1 .323 0l.766.767a.229.229 0 0 1 0 .323l-1.599 1.6a.228.228 0 0 1-.161.067Zm-.443-.996.443.444L3.61 3.653l-.442-.443-1.276 1.276Z" fill="#3A3238"/>
	<path d="m3.316 4.27-.323.324 1 1.002.324-.324-1.001-1.001Z" fill="#3A3238"/>
	<rect x="10.215" y="11.726" width="6.442" height=".549" rx=".274" transform="rotate(180 10.215 11.726)" fill="#D9C5B3"/>
</svg>
